<?xml version="1.0" encoding="utf-8"?>
<!-- Generator: Adobe Illustrator 16.0.0, SVG Export Plug-In . SVG Version: 6.00 Build 0)  -->
<!DOCTYPE svg PUBLIC "-//W3C//DTD SVG 1.1//EN" "http://www.w3.org/Graphics/SVG/1.1/DTD/svg11.dtd">
<svg version="1.1" id="Capa_1" xmlns="http://www.w3.org/2000/svg" xmlns:xlink="http://www.w3.org/1999/xlink" x="0px" y="0px"
	 width="729.269px" height="425.197px" viewBox="0 0 729.269 425.197" enable-background="new 0 0 729.269 425.197"
	 xml:space="preserve">
<g>
	<g>
		<g>
			<path fill="#95C11F" d="M0,365.901c0-30.756,19.276-57.214,55.915-57.214c13.875,0,24.865,4.153,36.495,14.196
				c4.316,3.982,4.805,10.982,0.476,15.449c-4.283,3.813-10.826,3.343-14.633-0.483c-6.543-6.856-13.235-8.75-22.338-8.75
				c-24.52,0-36.312,17.369-36.312,36.802c0,19.771,11.629,37.925,36.312,37.925c9.103,0,17.552-3.67,24.865-10.2
				c4.969-3.812,11.812-1.906,14.666,1.92c2.553,3.5,3.833,9.417-1.756,14.992c-11.152,10.344-24.539,12.406-37.774,12.406
				C17.37,422.944,0,396.656,0,365.901z"/>
			<path fill="#95C11F" d="M129.871,421.848c-5.101-2.887-8.28-8.633-5.101-15.307l45.761-89.405c4.283-8.449,15.762-8.775,19.746,0
				l44.95,89.405c6.504,12.42-12.752,22.306-18.492,9.873l-7.019-14.013h-58.801l-6.85,14.013
				C141.506,421.848,135.629,422.944,129.871,421.848z M198.4,381.364l-17.996-39.375l-19.616,39.375H198.4z"/>
			<path fill="#95C11F" d="M261.66,365.901c0-30.756,19.302-57.214,55.947-57.214c13.882,0,24.853,4.153,36.521,14.196
				c4.284,3.982,4.761,10.982,0.471,15.449c-4.31,3.813-10.859,3.343-14.686-0.483c-6.523-6.856-13.209-8.75-22.306-8.75
				c-24.539,0-36.331,17.369-36.331,36.802c0,19.771,11.629,37.925,36.331,37.925c9.096,0,17.539-3.67,24.853-10.2
				c4.949-3.812,11.818-1.906,14.672,1.92c2.56,3.5,3.807,9.417-1.756,14.992c-11.153,10.344-24.526,12.406-37.768,12.406
				C279.029,422.944,261.66,396.656,261.66,365.901z"/>
			<path fill="#95C11F" d="M423.754,331.475H395.86c-13.863,0-13.863-20.397,0-20.397h75.373c14.189,0,14.189,20.397,0,20.397
				h-26.452v80.474c0,13.882-21.026,14.195-21.026,0V331.475z"/>
			<path fill="#95C11F" d="M588.069,322.073c0-14.183,20.869-15.292,20.869,0v57.696c0,59.592-96.104,59.592-96.104,0v-57.696
				c0-14.34,20.883-14.966,20.883,0v57.696c0,31.409,54.353,33.302,54.353,0V322.073z"/>
			<path fill="#95C11F" d="M645.113,335.459c3.657-30.912,50.338-36.488,72.35-19.603c10.84,8.775-0.64,22.633-10.187,15.618
				c-11.825-7.482-38.577-10.982-41.921,5.59c-4.309,26.132,65.018,11.141,63.9,53.531c-1.109,40.498-59.767,41.45-81.739,23.272
				c-5.282-4.31-5.101-11.297-2.246-15.606c4.133-4.167,8.775-5.589,14.188-1.136c13.08,8.933,46.695,15.619,49.071-7.001
				C706.473,366.542,640.176,380.723,645.113,335.459z"/>
		</g>
		<path fill="#95C11F" d="M348.245,263.638c-0.594-14.555,0-36.037,0-46.338c0-10.311,0.614-7.875-22.534-17.895
			c-20.758-8.981-40.726-17.173-44.305-60.645c-2.03-25.169-0.13-51.517-0.587-60.837c-1.371-27.866,35.724-28.029,34.308-1.74
			c-1.254,23.383-0.02,32.707,0,43.376c0.026,14.261-0.993,35.944,13.255,35.946c10.676,0.017,20.843,2.468,20.183-24.712
			c-0.469-19.562,0.203-67.429,0-70.426c-0.424-5.976,1.208-30.481,0.549-42.855c-1.169-20.826,36.724-25.743,36.724,0
			c0,25.747-1.051,57.668,0,70.029c1.025,12.367-0.464,66.874,0,74.145c0.927,15.11,29.482,19.906,30.435-2.187
			c0.914-21.457,1.208-50.9,0.953-64.603c-0.417-26.217,35.104-24.725,35.092,1.214c0,23.103-0.223,46.384-0.588,58.781
			c-1.828,62.454-50.449,58.026-64.866,68.588c-5.003,3.663-1.45,24.141-1.633,39.133
			C384.968,284.096,349.113,285.18,348.245,263.638z"/>
	</g>
</g>
</svg>
